<?xml version="1.0" encoding="utf-8"?>
<!-- Generator: Adobe Illustrator 25.2.3, SVG Export Plug-In . SVG Version: 6.00 Build 0)  -->
<svg version="1.1" id="Layer_1" xmlns="http://www.w3.org/2000/svg" xmlns:xlink="http://www.w3.org/1999/xlink" x="0px" y="0px"
	 viewBox="0 0 64 72" style="enable-background:new 0 0 64 72;" xml:space="preserve">
<style type="text/css">
	.st0{fill:#F1DAD4;}
	.st1{fill-rule:evenodd;clip-rule:evenodd;fill:#604543;}
	.st2{fill-rule:evenodd;clip-rule:evenodd;fill:#886F6C;}
	.st3{fill-rule:evenodd;clip-rule:evenodd;fill:#667A68;}
	.st4{fill:#EED1CA;}
	.st5{fill:#604543;}
	.st6{fill:#886F6C;}
	.st7{fill:#EDA39E;}
	.st8{fill:#778B7C;}
</style>
<g>
	<path class="st0" d="M32.2,4c0,0,0.7,0.5,0.7,1.5"/>
</g>
<g>
	<g>
		<path class="st1" d="M32,0.9c-11,0-19.9,8.9-19.9,19.9c0,2.3,0.6,5.5,1.5,7.6L32,71.1l18.5-42.8c0.8-1.9,1.4-5.1,1.4-7.4
			C51.9,9.8,43,0.9,32,0.9z"/>
		<path class="st2" d="M32,0.9L32,0.9l0,70.1l18.5-42.8c0.8-1.9,1.4-5.1,1.4-7.4C51.9,9.8,43,0.9,32,0.9z"/>
		<circle class="st3" cx="32" cy="20.8" r="16.3"/>
	</g>
	<g>
		<path class="st4" d="M20.8,23.8c0-1.9,1.9-3.4,3.8-3.4c0,0,2.9-0.4,7.4-0.4s7.4,0.4,7.4,0.4c1.9,0,3.8,1.5,3.8,3.4"/>
		<path class="st5" d="M21.8,23.1c-0.8,0.2-1.2,0.8-0.9,1.3c1.5,2.7,3.1,5.3,3.7,8.3c0.7,0,1.1,0,1.8,0c-0.5-3-1.7-5.9-2.8-8.7
			C23.4,23.3,22.6,22.9,21.8,23.1z"/>
		<path class="st5" d="M27.6,22.2c-0.8,0.1-1.3,0.7-1.2,1.4c0.7,3,1.6,6,1.9,9.1c0.7,0,1.1,0,1.8,0c-0.1-3.1-0.6-6.2-0.9-9.3
			C29.2,22.7,28.4,22.1,27.6,22.2z"/>
		<path class="st6" d="M30.5,22c-0.8,0-1.4,0.7-1.3,1.4c0.4,3.1,0.8,6.2,0.9,9.3c0.7,0,1.1,0,1.8,0c0-3.1,0-6.2,0-9.4
			C32,22.6,31.3,22,30.5,22z"/>
		<path class="st5" d="M33.5,22c-0.8,0-1.5,0.6-1.5,1.3c0,3.1,0,6.2,0,9.4c0.7,0,1.1,0,1.8,0c0.1-3.1,0.6-6.2,0.9-9.3
			C34.9,22.7,34.3,22,33.5,22z"/>
		<path class="st6" d="M36.4,22.2c-0.8-0.1-1.5,0.5-1.6,1.2c-0.4,3.1-0.8,6.2-0.9,9.3c0.7,0,1.1,0,1.8,0c0.3-3.1,1.1-6.1,1.9-9.1
			C37.7,22.9,37.2,22.3,36.4,22.2z"/>
		<path class="st5" d="M39.3,22.5c-0.8-0.1-1.6,0.4-1.7,1c-0.7,3-1.6,6-1.9,9.1c0.7,0,1.1,0,1.8,0c0.5-3,1.7-5.9,2.8-8.7
			C40.6,23.3,40.1,22.7,39.3,22.5z"/>
		<path class="st6" d="M42.2,23.1c-0.8-0.2-1.6,0.2-1.9,0.8c-1.1,2.9-2.4,5.7-2.8,8.7c0.7,0,1.1,0,1.8,0c0.6-3,2.3-5.6,3.7-8.3
			C43.4,23.9,43,23.3,42.2,23.1z"/>
		<path class="st6" d="M24.7,22.5c-0.8,0.1-1.3,0.8-1,1.4c1.1,2.9,2.4,5.7,2.8,8.7c0.7,0,1.1,0,1.8,0c-0.3-3.1-1.1-6.1-1.9-9.1
			C26.3,22.9,25.5,22.4,24.7,22.5z"/>
		<g>
			<path class="st7" d="M23.2,21.7c-0.9-0.3-1.5-1.1-1.3-2.5c0.2-1.6,2.1-1.8,2.1-1.8s-1-0.7-0.9-2.1c0.3-2.2,2.8-1.7,2.8-1.7
				s-1-0.8-0.6-1.9c0.4-1.1,1.3-0.8,3-1.4c2-0.7,3.4-1.9,2.5-3.1c0,0,3.1,0.5,2.7,2.4c0,0,2.8,0,3.7,1.6s-0.1,2.5-0.1,2.5
				s2-0.6,2.8,0.9c0.8,1.6-0.2,2.3-0.2,2.3s1.9,0.4,2.3,1.9c0.4,1.5,0,2.9-1.8,3.2c-1.8,0.3-3.7-1.1-8.7-0.8
				C26.5,21.3,24.1,22,23.2,21.7z"/>
			<path class="st8" d="M22.5,20C22.5,20,22.5,20,22.5,20c0-0.1,0-0.1,0-0.2c0-0.1,0-0.3,0.2-0.6c0.1-0.2,0.3-0.5,0.6-0.7
				c0.3-0.2,0.7-0.4,1.1-0.5c0.4-0.1,0.9-0.2,1.4-0.3c0.5-0.1,1-0.1,1.5-0.2c0.5,0,1.1,0,1.7,0s1.1,0,1.7,0.1c0.6,0,1.1,0.1,1.7,0.1
				c0.5,0,1.1,0.1,1.6,0.1c0.5,0,1,0,1.5,0c0.5,0,0.9,0,1.4-0.1s0.8-0.1,1.1-0.2c0.3-0.1,0.6-0.2,0.8-0.3c0.2-0.1,0.4-0.2,0.5-0.3
				c0,0,0.1-0.1,0.1-0.1s0,0,0,0s0,0,0,0c0,0,0,0.1-0.1,0.1c-0.1,0.1-0.2,0.2-0.5,0.4s-0.5,0.3-0.8,0.4c-0.3,0.1-0.7,0.2-1.1,0.3
				c-0.4,0.1-0.9,0.1-1.4,0.2c-0.5,0-1,0.1-1.5,0.1s-1.1,0-1.7,0c-0.6,0-1.1-0.1-1.7-0.1c-0.6-0.1-1.1-0.1-1.7-0.1
				c-0.5,0-1.1,0-1.6,0c-0.5,0-1,0-1.5,0.1c-0.5,0-0.9,0.1-1.3,0.2c-0.4,0.1-0.8,0.2-1.1,0.4c-0.3,0.2-0.5,0.3-0.7,0.5
				c-0.1,0.2-0.2,0.4-0.2,0.5C22.5,19.9,22.5,19.9,22.5,20C22.5,20,22.5,20,22.5,20z"/>
			<path class="st8" d="M24,14.8C24,14.8,24,14.8,24,14.8c0,0,0-0.1,0.1-0.1c0.1-0.1,0.1-0.2,0.3-0.3c0.2-0.1,0.4-0.2,0.7-0.3
				c0.3,0,0.6,0,0.9,0c0.3,0,0.7,0.1,1,0.2c0.4,0.1,0.7,0.2,1.1,0.3c0.4,0.1,0.8,0.2,1.2,0.3c0.4,0.1,0.8,0.1,1.2,0.2
				c0.1,0,0.2,0,0.3,0c0.1,0,0.2,0,0.3,0c0.2,0,0.4,0,0.6,0c0.4,0,0.8,0,1.2,0c0.4,0,0.8-0.1,1.1-0.1c0.4,0,0.7-0.1,1-0.2
				c0.6-0.2,1.1-0.4,1.4-0.6c0.1-0.1,0.3-0.2,0.3-0.3c0,0,0-0.1,0.1-0.1c0,0,0,0,0,0s0,0,0,0c0,0,0,0.1,0,0.1c0,0.1-0.1,0.2-0.3,0.3
				c-0.3,0.3-0.8,0.6-1.4,0.8c-0.3,0.1-0.6,0.2-1,0.3c-0.4,0.1-0.8,0.2-1.2,0.2c-0.4,0-0.8,0.1-1.3,0.1c-0.2,0-0.4,0-0.7,0
				c-0.2,0-0.4,0-0.7,0c-0.4,0-0.9-0.1-1.3-0.2c-0.4-0.1-0.8-0.2-1.2-0.3c-0.4-0.1-0.8-0.2-1.1-0.3c-0.4-0.1-0.7-0.2-1-0.3
				c-0.3-0.1-0.6-0.1-0.8-0.1c-0.2,0-0.5,0-0.6,0.1c-0.2,0.1-0.3,0.2-0.4,0.2C24.1,14.7,24,14.8,24,14.8z"/>
			<path class="st8" d="M26,12C26,12,26,11.9,26,12c0-0.2,0.1-0.2,0.2-0.3c0.2-0.2,0.5-0.3,0.9-0.4c0.2,0,0.4-0.1,0.6-0.1
				c0.2,0,0.5-0.1,0.7-0.1c0.3,0,0.5-0.1,0.8-0.1c0.3,0,0.5,0,0.8-0.1c0.1,0,0.3,0,0.4,0s0.3,0,0.4,0c0.3,0,0.5-0.1,0.8-0.2
				c0.5-0.1,0.9-0.3,1.2-0.6c0.1-0.1,0.3-0.3,0.3-0.4c0.1-0.1,0.1-0.3,0.1-0.4s0-0.2,0-0.3c0-0.1,0-0.1,0-0.1s0,0,0,0.1
				c0,0.1,0.1,0.1,0.1,0.3s0,0.3,0,0.4c0,0.1-0.1,0.2-0.1,0.3c0,0.1-0.1,0.2-0.2,0.2c-0.3,0.3-0.7,0.5-1.2,0.7
				c-0.2,0.1-0.5,0.1-0.8,0.2c-0.1,0-0.3,0-0.4,0.1s-0.3,0-0.4,0.1c-0.3,0-0.5,0.1-0.8,0.1c-0.3,0-0.5,0-0.8,0.1
				c-0.3,0-0.5,0-0.7,0.1c-0.2,0-0.5,0-0.6,0.1c-0.4,0-0.7,0.1-0.9,0.2C26.2,11.8,26.1,11.8,26,12C26,11.9,26,12,26,12z"/>
		</g>
		<g>
			<path class="st0" d="M33.8,12c0,0,0.4,0.3,0.4,1"/>
		</g>
		<g>
			<path class="st0" d="M26.1,16.5c0,0-0.5,0.1-1.1-0.3"/>
		</g>
		<g>
			<path class="st0" d="M23.5,20.5c0,0,0.4-0.4,1-0.3"/>
		</g>
		<g>
			<path class="st0" d="M27.3,19.2c0,0,0.5,0.2,0.7,0.9"/>
		</g>
		<g>
			<path class="st0" d="M31.1,20c0,0,0.5-0.3,1.1,0"/>
		</g>
		<g>
			<path class="st0" d="M35.6,20.4c0,0-0.5-0.2-0.6-0.9"/>
		</g>
		<g>
			<path class="st0" d="M39.2,20.7c0,0-0.5,0-1-0.5"/>
		</g>
		<g>
			<path class="st0" d="M40.8,18c0,0-0.1,0.5-0.8,0.8"/>
		</g>
		<g>
			<path class="st0" d="M29.5,13.9c0,0,0.1-0.5,0.8-0.8"/>
		</g>
		<g>
			<path class="st0" d="M29.8,16.5c0,0-0.3,0.5-1,0.6"/>
		</g>
		<g>
			<path class="st0" d="M32.8,16.8c0,0,0.3-0.5,1-0.5"/>
		</g>
		<g>
			<path class="st0" d="M36.7,17.1c0,0-0.4-0.4-0.3-1"/>
		</g>
		<g>
			<path class="st0" d="M38.4,15.5c0,0,0.5-0.1,1,0.3"/>
		</g>
	</g>
</g>
</svg>
