<?xml version="1.0" encoding="utf-8"?>
<!-- Generator: Adobe Illustrator 25.1.0, SVG Export Plug-In . SVG Version: 6.00 Build 0)  -->
<svg version="1.1" id="Layer_1" xmlns="http://www.w3.org/2000/svg" xmlns:xlink="http://www.w3.org/1999/xlink" x="0px" y="0px"
	 viewBox="0 0 160 160" style="enable-background:new 0 0 160 160;" xml:space="preserve">
<style type="text/css">
	.st0{fill:#F1DAD4;}
	.st1{fill:#745856;}
	.st2{fill:#886F6C;}
	.st3{fill:#F2B4AD;}
	.st4{fill:#778B7C;}
</style>
<g>
	<path class="st0" d="M80.2,48c0,0,0.7,0.5,0.7,1.5"/>
</g>
<g>
	<path class="st0" d="M10.8,104c0-11.7,11.9-21.3,23.6-21.3c0,0,17.7-2.5,45.6-2.5s45.6,2.5,45.6,2.5c11.7,0,23.6,9.6,23.6,21.3"/>
	<path class="st1" d="M16.8,99.5c-4.9,1.1-7.5,4.9-5.8,8.2c9.1,16.5,19.3,32.7,23.2,51.3c4.6,0,6.9,0,11.4,0
		c-2.8-18.9-10.5-36.5-17.4-54.2C26.9,100.9,21.8,98.4,16.8,99.5z"/>
	<path class="st1" d="M52.8,93.8c-5,0.5-8.2,4.6-7.2,8.8c4.6,18.6,9.7,37.2,11.6,56.3c4.6,0,6.9,0,11.4,0
		c-0.9-19.3-3.5-38.4-5.8-57.6C62.3,97,57.8,93.4,52.8,93.8z"/>
	<path class="st2" d="M70.9,92.7c-5,0.2-8.6,4.3-8.1,8.7c2.3,19.2,4.8,38.3,5.8,57.6c4.6,0,6.9,0,11.4,0c0-19.3,0-38.7,0-58
		C80,96.5,75.9,92.5,70.9,92.7z"/>
	<path class="st1" d="M89.1,92.7c-5-0.2-9.1,3.7-9.1,8.3c0,19.3,0,38.7,0,58c4.6,0,6.9,0,11.4,0c0.9-19.3,3.5-38.4,5.8-57.6
		C97.7,97,94.1,92.9,89.1,92.7z"/>
	<path class="st2" d="M107.2,93.8c-5-0.5-9.5,3.1-10,7.6c-2.3,19.2-4.8,38.3-5.8,57.6c4.6,0,6.9,0,11.4,0c1.9-19.1,7-37.7,11.6-56.3
		C115.4,98.4,112.2,94.3,107.2,93.8z"/>
	<path class="st1" d="M125.2,96.1c-5-0.8-9.8,2.3-10.8,6.5c-4.6,18.6-9.7,37.2-11.6,56.3c4.6,0,6.9,0,11.4,0
		c2.8-18.9,10.5-36.5,17.4-54.2C133.1,100.9,130.2,96.9,125.2,96.1z"/>
	<path class="st2" d="M143.2,99.5c-4.9-1.1-10,1.4-11.5,5.2c-6.9,17.7-14.6,35.4-17.4,54.2c4.6,0,6.9,0,11.4,0
		c3.9-18.6,14.1-34.8,23.2-51.2C150.7,104.4,148.1,100.6,143.2,99.5z"/>
	<path class="st2" d="M34.8,96.1c-5,0.8-7.9,4.8-6.4,8.6c6.9,17.7,14.6,35.4,17.4,54.2c4.6,0,6.9,0,11.4,0
		c-1.9-19.1-7-37.7-11.6-56.3C44.6,98.4,39.7,95.3,34.8,96.1z"/>
	<g>
		<path class="st3" d="M25.6,91.1c-5.6-1.9-9.3-6.9-8-15.8C19,65.2,30.5,64.4,30.5,64.4s-6.4-4.4-5.3-12.8
			C27,38,42.6,41.1,42.6,41.1s-6.5-4.9-3.9-12c2.5-6.7,8.2-5.1,18.4-8.7C69.5,16,78.3,8.7,72.8,1c0,0,19.2,3.1,16.9,14.9
			c0,0,17.2,0,23.2,10s-0.5,15.3-0.5,15.3s12.5-3.7,17.5,5.6c5.2,9.7-1.5,14.1-1.5,14.1s11.9,2.7,14.3,11.7
			c2.5,9-0.3,17.9-11.3,19.7c-11,1.8-23.2-6.7-54.2-5.2C46.1,88.4,31.2,93,25.6,91.1z"/>
		<path class="st4" d="M20.9,80.2c0,0,0-0.1,0-0.3c0-0.2,0-0.5,0-0.9c0-0.8,0.2-2.1,1-3.5s2.1-2.9,4-4.2c1.9-1.3,4.2-2.3,6.7-3.2
			c2.6-0.8,5.4-1.5,8.5-2c3-0.5,6.3-0.8,9.6-1c3.3-0.2,6.8-0.2,10.3-0.1s7.1,0.3,10.6,0.7c3.5,0.3,7,0.6,10.4,0.8
			c3.4,0.2,6.8,0.4,10.1,0.5c3.3,0.1,6.4,0.2,9.4,0.2c3,0,5.8-0.2,8.4-0.4c2.6-0.2,4.9-0.6,7-1c2.1-0.5,3.8-1,5.2-1.6
			c1.4-0.6,2.4-1.2,3.1-1.6c0.3-0.2,0.6-0.4,0.8-0.5c0.2-0.1,0.2-0.2,0.2-0.2s-0.1,0.1-0.2,0.2c-0.1,0.2-0.3,0.4-0.7,0.7
			c-0.6,0.6-1.5,1.4-2.9,2.2c-1.4,0.8-3.1,1.6-5.2,2.4c-2.1,0.7-4.5,1.4-7.1,1.9c-2.6,0.5-5.5,0.9-8.6,1.1c-3,0.3-6.3,0.4-9.6,0.4
			s-6.8-0.1-10.3-0.2c-3.5-0.2-7-0.5-10.5-0.8c-3.5-0.4-6.9-0.7-10.4-0.8c-3.4-0.2-6.8-0.3-10-0.3c-3.3,0-6.4,0.1-9.4,0.4
			c-3,0.3-5.7,0.6-8.2,1.2s-4.7,1.3-6.6,2.3c-1.8,1-3.2,2.1-4.1,3.3c-0.8,1.2-1.2,2.3-1.4,3.1c-0.1,0.4-0.1,0.7-0.2,0.9
			C21,80.1,20.9,80.2,20.9,80.2z"/>
		<path class="st4" d="M30.5,47.9c0,0,0-0.1,0.1-0.2c0.1-0.1,0.2-0.4,0.4-0.6c0.4-0.5,0.9-1.3,2-2c1-0.7,2.5-1.4,4.2-1.6
			c1.7-0.3,3.7-0.2,5.7,0.1c2.1,0.3,4.2,0.7,6.5,1.2c2.2,0.5,4.6,1.1,7,1.6c2.4,0.6,4.9,1.1,7.4,1.6c2.5,0.5,5.1,0.9,7.7,1.2
			c0.7,0.1,1.3,0.2,1.9,0.2c0.6,0.1,1.3,0.1,1.9,0.2c1.3,0.1,2.6,0.2,3.8,0.2c2.6,0.1,5.1,0.1,7.5-0.1c2.4-0.2,4.8-0.4,7-0.7
			c2.2-0.3,4.3-0.8,6.2-1.3c3.8-1,6.8-2.3,8.7-3.6c0.9-0.7,1.6-1.3,2-1.8c0.2-0.2,0.3-0.4,0.4-0.6c0.1-0.1,0.1-0.2,0.1-0.2
			s0,0.1-0.1,0.2c-0.1,0.1-0.2,0.4-0.3,0.6c-0.3,0.5-0.9,1.3-1.7,2.1c-1.7,1.6-4.7,3.5-8.5,4.9c-1.9,0.7-4,1.4-6.3,1.9
			s-4.7,1-7.2,1.3c-2.5,0.3-5.1,0.5-7.8,0.6c-1.3,0-2.7,0-4.1,0c-1.3,0-2.7-0.1-4.1-0.2c-2.7-0.2-5.4-0.6-8-1.1
			c-2.6-0.5-5.2-1.1-7.6-1.8c-2.4-0.7-4.7-1.4-6.9-2.1c-2.2-0.7-4.2-1.4-6.1-1.9c-1.9-0.5-3.6-0.8-5.1-0.9s-2.8,0.2-3.8,0.6
			c-1,0.4-1.7,1-2.2,1.4C30.7,47.6,30.5,47.9,30.5,47.9z"/>
		<path class="st4" d="M42.8,30.5c0,0,0-0.2,0.2-0.6c0.1-0.4,0.5-0.9,1.1-1.4c1.2-1,3.3-1.8,5.8-2.5c1.2-0.3,2.6-0.6,4-0.8
			c1.4-0.2,3-0.5,4.5-0.7c1.6-0.2,3.2-0.4,4.8-0.5c1.6-0.2,3.3-0.3,5-0.5c0.8-0.1,1.7-0.1,2.5-0.2c0.8-0.1,1.6-0.2,2.4-0.3
			c1.6-0.2,3.2-0.6,4.7-1c3-0.8,5.7-1.9,7.5-3.5c0.9-0.8,1.6-1.7,1.9-2.6c0.4-0.9,0.4-1.8,0.4-2.5c0-0.7-0.2-1.3-0.3-1.6
			c-0.1-0.4-0.2-0.6-0.2-0.6s0.1,0.2,0.3,0.5c0.2,0.4,0.4,0.9,0.5,1.6c0.1,0.7,0.2,1.7-0.1,2.7c-0.2,0.5-0.4,1-0.7,1.6
			c-0.3,0.5-0.7,1-1.2,1.5c-1.9,1.9-4.6,3.3-7.7,4.3c-1.5,0.5-3.1,0.9-4.8,1.3c-0.8,0.2-1.7,0.3-2.5,0.5c-0.8,0.2-1.7,0.3-2.5,0.4
			c-1.7,0.3-3.3,0.5-5,0.7c-1.6,0.2-3.3,0.3-4.8,0.5c-1.6,0.1-3.1,0.3-4.5,0.4c-1.4,0.2-2.8,0.2-4,0.4c-2.5,0.3-4.5,0.7-5.7,1.3
			c-0.6,0.3-1.1,0.7-1.3,1C42.9,30.3,42.8,30.5,42.8,30.5z"/>
	</g>
	<g>
		<path class="st0" d="M91.4,30.6c0,0,2.7,2,2.7,6.3"/>
	</g>
	<g>
		<path class="st0" d="M43.4,58.3c0,0-3.3,0.9-6.6-1.7"/>
	</g>
	<g>
		<path class="st0" d="M27.2,83.7c0,0,2.3-2.5,6.5-2.1"/>
	</g>
	<g>
		<path class="st0" d="M51,75.6c0,0,3.1,1.3,4.2,5.3"/>
	</g>
	<g>
		<path class="st0" d="M74.4,80.6c0,0,2.9-1.7,6.8,0"/>
	</g>
	<g>
		<path class="st0" d="M102.1,83.1c0,0-3-1.5-3.7-5.7"/>
	</g>
	<g>
		<path class="st0" d="M124.8,84.4c0,0-3.4,0.3-6.2-2.9"/>
	</g>
	<g>
		<path class="st0" d="M134.4,67.7c0,0-0.8,3.3-4.7,5"/>
	</g>
	<g>
		<path class="st0" d="M64.3,42.2c0,0,0.8-3.3,4.7-4.9"/>
	</g>
	<g>
		<path class="st0" d="M66.2,58.3c0,0-1.7,2.9-5.9,3.5"/>
	</g>
	<g>
		<path class="st0" d="M84.9,60.4c0,0,1.9-2.8,6.2-2.9"/>
	</g>
	<g>
		<path class="st0" d="M109.1,62.3c0,0-2.4-2.3-1.9-6.5"/>
	</g>
	<g>
		<path class="st0" d="M119.4,52.2c0,0,3.3-0.7,6.5,2.1"/>
	</g>
</g>
</svg>
