<svg id="Layer_1" data-name="Layer 1" xmlns="http://www.w3.org/2000/svg" viewBox="0 0 400 100"><defs><style>.cls-1{fill:#f1dad4;}</style></defs><path class="cls-1" d="M200.15,18a1.93,1.93,0,0,1,.66,1.52"/><path class="cls-1" d="M72,85.38c-.54,0-1.12,0-1.69-.07-9.86-1-14.7-9.79-17.41-18.29A75.11,75.11,0,0,1,50.2,55.61a92.74,92.74,0,0,1-1-12.16,88.84,88.84,0,0,1,.61-11.76c-1,0-2.1.17-3.32.31A7.82,7.82,0,0,0,43,33.35a9.49,9.49,0,0,0-2.94,3.52,17.63,17.63,0,0,0-1.56,6.81,2.26,2.26,0,0,1-2.24,2.1,1.91,1.91,0,0,1-1.62-.71,2.42,2.42,0,0,1-.61-1.66c.4-5.62,2-9.65,4.77-12.16s6.71-3.89,11.76-4.13a42.61,42.61,0,0,1,3.15-9.79,28,28,0,0,1,4.77-7.28,19.07,19.07,0,0,1,6-4.54A15.73,15.73,0,0,1,71.41,4a17,17,0,0,1,5.93,1,17.94,17.94,0,0,1,5.11,2.85A14.37,14.37,0,0,1,86,12a10.25,10.25,0,0,1,1.36,5A10.14,10.14,0,0,1,86,22a17,17,0,0,1-5.28,6,19.1,19.1,0,0,1-6.71,2.78,35.91,35.91,0,0,1-7.65.74l-8.2-.1a55.92,55.92,0,0,0-1.09,10.8,81.55,81.55,0,0,0,.65,11.18A71,71,0,0,0,59.89,64a54,54,0,0,0,3.29,8.84,22.69,22.69,0,0,0,4.1,6.06A6.59,6.59,0,0,0,72,81.14q7.17,0,14.43-11.38A84.18,84.18,0,0,0,92,59.09c1.42-3.18,2.54-8.84,5-11.41a2.42,2.42,0,0,1,3.32-.37c1,1,.51,2.67-.06,4-3.09,7.11-6,14.36-10.2,20.9C85.84,78.88,80.42,85.38,72,85.38ZM59,27c1.18.1,2.61.2,4.23.27s3.35,0,5.15-.07a32.74,32.74,0,0,0,5.25-.78,16.41,16.41,0,0,0,4.64-1.79,9.66,9.66,0,0,0,3.35-3A8,8,0,0,0,82.86,17a6.11,6.11,0,0,0-1-3.32A9.94,9.94,0,0,0,79.27,11a13.8,13.8,0,0,0-7.9-2.54A5.73,5.73,0,0,0,68,9.68a15.4,15.4,0,0,0-3.42,3.65,33.29,33.29,0,0,0-3.09,5.83A54.43,54.43,0,0,0,59,27Z"/><path class="cls-1" d="M123,81.92a4,4,0,0,1-1.26-.2c-2-.68-3-2.84-3.52-4.84a31.84,31.84,0,0,1-1-12.13c-2.74,4.17-6.37,8.6-11.31,8.77-4.37.14-8.2-3.35-9.79-7.41s-1.35-8.57-.91-12.91c.23-2.17.67-4.61,2.47-5.83,5.66-3.86,5.32,8.3,5.25,10.44-.07,1.93-.1,3.72,0,5.38a13.09,13.09,0,0,0,.68,4.14A2.24,2.24,0,0,0,105.79,69c1.69,0,3.35-1,5-3a32.22,32.22,0,0,0,4.74-8.57c.61-1.52,1.12-3,1.59-4.57s.85-2.85,1.16-4,.61-2.51,1-4a1.87,1.87,0,0,1,.88-1.35,3,3,0,0,1,1.62-.44c1.16,0,2,.84,2.48,2.54a23.68,23.68,0,0,1,.78,6.33c0,2.54-.11,5.28-.34,8.26s-.51,5.73-.82,8.27-.54,4.64-.74,6.33-.2,2.54,0,2.54a4.27,4.27,0,0,0,.71-.47A9,9,0,0,0,125.4,75a29.25,29.25,0,0,0,2.34-4.17c.88-1.83,1.89-4.33,3-7.45q1-2.74,1.83-5.48c.58-1.8,1-3.43,1.46-4.85s.85-3,1.35-4.74a2.15,2.15,0,0,1,1-1.39,2,2,0,0,1,1.66-.27,2.11,2.11,0,0,1,1.39,1,2,2,0,0,1,.27,1.66c0,.1-.14.61-.37,1.52s-.58,2.1-1,3.52c-2.34,8-4.81,16-9.45,23.07C127.5,79.65,125.37,81.89,123,81.92Z"/><path class="cls-1" d="M172.24,48.7a.74.74,0,0,1,0,.27.72.72,0,0,0,0,.27,73.42,73.42,0,0,1-5.36,15.41A34.36,34.36,0,0,1,159,75.15a28,28,0,0,1-8.4,5.35c-2.88,1.15-5.66,2.1-8.33,2.91l-2.85,1c-1,4.77-2.37,8.26-4.1,10.53A7.73,7.73,0,0,1,129,98.32a6.89,6.89,0,0,1-4-1.19,4.14,4.14,0,0,1-1.66-3.66,10.21,10.21,0,0,1,2.48-6.7,17.33,17.33,0,0,1,7.58-4.91,26.8,26.8,0,0,0,.48-4.92c.06-2.26.13-4.87.2-7.75s.14-5.86.24-8.94.3-5.9.61-8.4a36.08,36.08,0,0,1,1.22-6.27c.5-1.63,1.22-2.47,2.13-2.47a2.45,2.45,0,0,1,1.59.54,2,2,0,0,1,.78,1.52c0,.34,0,.78.07,1.26,0,.74.13,1.89.24,3.42a.4.4,0,0,1,.13-.24,16.17,16.17,0,0,1,1.9-3.39,10.42,10.42,0,0,1,2-2,5.85,5.85,0,0,1,1.93-1,7.18,7.18,0,0,1,1.76-.27,9.12,9.12,0,0,1,6.47,2.27,13,13,0,0,1,3.52,5.73,20.59,20.59,0,0,1,.85,7.45,23.62,23.62,0,0,1-1.59,7.45,15.21,15.21,0,0,1-3.87,5.73,8.39,8.39,0,0,1-5.86,2.26,8.09,8.09,0,0,1-3.82-.88A12.44,12.44,0,0,1,141,70.07c-.1,1.69-.2,3.28-.31,4.84s-.23,3-.44,4.41l.75-.24c1.73-.51,3.45-1,5.18-1.63a29.77,29.77,0,0,0,10-5.79,27,27,0,0,0,4.5-5.25,41.47,41.47,0,0,0,4-7.62C165.84,55.84,172.24,48.19,172.24,48.7ZM129,93.81a1.45,1.45,0,0,0,1.22-.61,5.08,5.08,0,0,0,.85-1.56,19.3,19.3,0,0,0,.64-2c.17-.71.37-1.42.54-2.13a8.33,8.33,0,0,0-2.57,1.62,7.08,7.08,0,0,0-1.56,2.1,2.93,2.93,0,0,0-.34,1.83C127.91,93.54,128.28,93.81,129,93.81Zm16.09-42.37a35.89,35.89,0,0,0-1.59,4.91,42,42,0,0,0-1.09,5.89,10.27,10.27,0,0,0,.41,1.6,13.16,13.16,0,0,0,1,2.37,7.87,7.87,0,0,0,1.77,2.2,3.81,3.81,0,0,0,2.64,1q1,0,1.83-1.62a18.18,18.18,0,0,0,1.45-4.07,32.93,32.93,0,0,0,.78-10.57,11.22,11.22,0,0,0-1.11-4.06,2.7,2.7,0,0,0-2.51-1.63,2.75,2.75,0,0,0-1.56.88A9.18,9.18,0,0,0,145.08,51.44Z"/><path class="cls-1" d="M239.82,46.83a1.75,1.75,0,0,1,1.11.82,2.56,2.56,0,0,1,.38,1.35,3.46,3.46,0,0,1-.07.68c-3.32,9.35-7,16.43-11,21.3-5.66,6.85-13.38,9.86-21.27,4.3-2.64-1.86-14.73-13.34-14.77-16.8,0,4.24,0,7.22-.13,9s-.24,2.68-.24,2.71a5.09,5.09,0,0,1-1.42,3,3.82,3.82,0,0,1-2.54,1.36,2,2,0,0,1-1.53-.65,2.49,2.49,0,0,1-.71-1.52c0-.34-.07-2-.2-4.81s-.21-6.4-.27-10.67a2.94,2.94,0,0,1-.78-.14,2.89,2.89,0,0,1-1.12-.61,4.39,4.39,0,0,1-1-1.25,4.44,4.44,0,0,1-.44-2.17c0-.23,0-.64,0-1.15A4.23,4.23,0,0,1,184.2,50a4,4,0,0,1,1-1.39,2.77,2.77,0,0,1,1.93-.61v-4.5c0-1.52,0-3,.06-4.57-2.67,2.44-5.21,4.81-7.58,7.11a75.63,75.63,0,0,0-6.24,6.77,36.42,36.42,0,0,0-4.16,6.37c-1,2-1.53,5-3.76,8.2s-1.12-.2-1.56-.64a2.11,2.11,0,0,1-.68-1.6A17.31,17.31,0,0,1,165,57.6c2.75-5.82,7-10.7,11.59-15.17,1.49-1.46,10.7-7.59,10.77-9.69.2-5.11.51-9.62,1-13.51a40,40,0,0,1,2.14-9.72,13.8,13.8,0,0,1,3.86-5.86,9.38,9.38,0,0,1,6.13-2,8,8,0,0,1,5.89,2.41,8.6,8.6,0,0,1,2.37,6.3,16.3,16.3,0,0,1-1,5.65,24.57,24.57,0,0,1-2.85,5.42,43.52,43.52,0,0,1-4.3,5.36q-2.49,2.68-5.49,5.41c0,1.83-.1,4-.1,6.61s0,5.93,0,10.09l.13.07,1.05.31a68.4,68.4,0,0,0,12.09-8.61,76.83,76.83,0,0,0,9.93-10.46,55.56,55.56,0,0,0,6.71-10.74,23,23,0,0,0,2.47-9.38V9.51A2.43,2.43,0,0,1,227.93,8a1.86,1.86,0,0,1,1.56-.75,1.93,1.93,0,0,1,1.79.85,4.15,4.15,0,0,1,.51,2.13,26.39,26.39,0,0,1-1.59,9A42.46,42.46,0,0,1,226,27.66a56.71,56.71,0,0,1-6.09,7.76,92.11,92.11,0,0,1-7.15,6.87c-2.47,2.14-4.91,4.1-7.35,5.93s-4.68,3.42-6.78,4.81c1.39,1.93,2.92,4.13,4.58,6.54s3.32,4.71,5,6.84A46.78,46.78,0,0,0,213,71.8c1.56,1.45,3,2.2,4.2,2.2,3.42-.14,6.81-2.44,10.2-6.88s6.53-10.77,9.51-19a2,2,0,0,1,.82-1.08,2.19,2.19,0,0,1,1.25-.41A4.25,4.25,0,0,1,239.82,46.83ZM200.42,6.09A3.42,3.42,0,0,0,197.21,8a14.7,14.7,0,0,0-1.43,4.87,43.06,43.06,0,0,0-.37,6.41c0,2.3,0,4.47,0,6.43a38.89,38.89,0,0,0,6.71-8A14.94,14.94,0,0,0,204.39,10a3.8,3.8,0,0,0-1.15-2.88A4.19,4.19,0,0,0,200.42,6.09Z"/><path class="cls-1" d="M263.25,84.8a5.57,5.57,0,0,1-4-1.28,7.22,7.22,0,0,1-1.76-4,32,32,0,0,1-.24-6.84c.14-2.78.34-6.1.61-9.89a12.35,12.35,0,0,1-1,1.52c-.34.47-.71,1-1,1.46a23.71,23.71,0,0,1-5.79,5.59,12.05,12.05,0,0,1-3.29,1.45,12.26,12.26,0,0,1-3,.41,8,8,0,0,1-5.66-2.2,14,14,0,0,1-3.48-5.49,20.88,20.88,0,0,1-1.19-7.11,20,20,0,0,1,1.25-7.15,14.11,14.11,0,0,1,3.76-5.52,9.39,9.39,0,0,1,6.3-2.27c.51,0,1,0,1.46.07a6.29,6.29,0,0,1,1.56.4,7.72,7.72,0,0,1,1.89,1.16A18.56,18.56,0,0,1,252,47.34a29.89,29.89,0,0,1,5,7.45,47.49,47.49,0,0,0,3.12-9.89,2,2,0,0,1,.92-1.39,2.22,2.22,0,0,1,1.66-.34c.77.11,1.38.72,1.79,1.87a17.53,17.53,0,0,1,.78,4.37,46.85,46.85,0,0,1,0,6c-.1,2.2-.23,4.47-.44,6.74s-.4,4.5-.67,6.71-.48,4.13-.68,5.79-.34,3-.41,4.1,0,1.55.21,1.55a1.84,1.84,0,0,0,.84-.54,10.1,10.1,0,0,0,1.63-2.23,42.48,42.48,0,0,0,2.4-4.78c.95-2.07,2-4.78,3.22-8.16.71-2,1.36-4,1.93-5.9s1.12-3.65,1.53-5.18.88-3.22,1.38-5.11a2.15,2.15,0,0,1,1-1.39,2,2,0,0,1,1.66-.27,2.23,2.23,0,0,1,1.66,2.67c-.51,2-1,3.8-1.46,5.39s-1,3.45-1.62,5.49-1.29,4.09-2,6.16c-.88,2.54-1.76,4.78-2.57,6.77a39.41,39.41,0,0,1-2.51,5.15C268.1,82.67,265.69,84.8,263.25,84.8ZM244.59,47.85c-.54,0-1.05.51-1.49,1.52a17.11,17.11,0,0,0-1.08,3.8,34.57,34.57,0,0,0-.54,4.94,34,34,0,0,0,.06,5,13.38,13.38,0,0,0,.88,3.9c.44,1.08,1.05,1.62,1.8,1.66a6,6,0,0,0,3.39-1.09A18,18,0,0,0,252.35,63a30,30,0,0,0,2.17-3.22,42.07,42.07,0,0,0-2.71-5.42,25.62,25.62,0,0,0-3-4C247.2,48.7,245.81,47.85,244.59,47.85Z"/><path class="cls-1" d="M291.94,97.91a9.31,9.31,0,0,1-3.62-.71,9,9,0,0,1-2.91-1.93,8.73,8.73,0,0,1-1.93-3,9.7,9.7,0,0,1-.72-3.79,13.71,13.71,0,0,1,1.63-6.44,28.57,28.57,0,0,1,4.2-5.89,57.61,57.61,0,0,1,5.66-5.32c2.06-1.69,4.06-3.28,6-4.84,0-1.36-.1-2.64-.13-4s-.14-2.55-.24-3.73A30.84,30.84,0,0,1,297.23,65a23.87,23.87,0,0,1-3.49,4.74,14.86,14.86,0,0,1-3.9,2.85,9.62,9.62,0,0,1-4,.91,10.49,10.49,0,0,1-6.64-2,13,13,0,0,1-3.86-5,18.62,18.62,0,0,1-1.56-6.47,25,25,0,0,1,.38-6.47,14.12,14.12,0,0,1,1.86-4.94,3.49,3.49,0,0,1,2.91-2,2.7,2.7,0,0,1,2.68,1.63,11.41,11.41,0,0,1,.88,4.13,48.38,48.38,0,0,1,0,5.39,48.21,48.21,0,0,0,0,5.38,13.24,13.24,0,0,0,.81,4.13A2.49,2.49,0,0,0,285.88,69c1.63,0,3.29-1,4.95-3a34.41,34.41,0,0,0,4.81-8.57,44.76,44.76,0,0,0,1.66-4.54c.47-1.49.88-2.85,1.18-4s.64-2.54.92-4a2.07,2.07,0,0,1,.77-1.29,2.23,2.23,0,0,1,1.46-.47h.07A3.17,3.17,0,0,1,304,44a7,7,0,0,1,1.42,2.88,32.86,32.86,0,0,1,.91,5c.24,2.07.58,4.54,1,7.42,1.25-1,2.3-2,3.25-2.78a17.88,17.88,0,0,0,2.33-2.5,16.3,16.3,0,0,0,1.63-2.61,18.21,18.21,0,0,0,1.19-3.12,2.07,2.07,0,0,1,2.16-1.62,1.91,1.91,0,0,1,1.63.74,2.45,2.45,0,0,1,.61,1.56,1.75,1.75,0,0,1-.07.51,22.72,22.72,0,0,1-1.86,4.61,20.11,20.11,0,0,1-2.68,3.76A34.8,34.8,0,0,1,312,61.3c-1.35,1.11-2.84,2.33-4.54,3.69a81.26,81.26,0,0,1-1.05,13.85,41.45,41.45,0,0,1-3.05,10.37,17.37,17.37,0,0,1-4.91,6.47A10.07,10.07,0,0,1,291.94,97.91Zm8-26.66c-1.49,1.19-3,2.48-4.5,3.87a44.16,44.16,0,0,0-4.14,4.33,24.27,24.27,0,0,0-3,4.54,9.89,9.89,0,0,0-1.15,4.54A5,5,0,0,0,288.46,92a4.48,4.48,0,0,0,3.45,1.42c2.17,0,4-1.83,5.42-5.42S299.67,78.81,300,71.25Z"/><path class="cls-1" d="M347.63,84.8c-2.47,0-5.08-1.18-7.76-3.59-1.35-1.25-2.57-2.47-3.72-3.72a21.8,21.8,0,0,1-3-4.1,9.2,9.2,0,0,1-3.09.91,16.05,16.05,0,0,1-4.23.14,18,18,0,0,1-4.13-.85,5.27,5.27,0,0,1-2.85-2.1,4.89,4.89,0,0,1-.78-2.54,4.79,4.79,0,0,1,.71-2.61,6.56,6.56,0,0,1,2.88-2.67,9.39,9.39,0,0,1,4.37-1,14.66,14.66,0,0,1,3.73.51,7.74,7.74,0,0,1,3.42,1.93l.07-.06a26.83,26.83,0,0,0,2.67-3.9c.78-1.42,1.56-2.84,2.27-4.33s1.46-2.92,2.2-4.37A36.25,36.25,0,0,1,343,48.29a31.41,31.41,0,0,1-4.37-.44l-4.36-.75q-3.51-.66-6-1a11.3,11.3,0,0,0-4.23.07,5,5,0,0,0-2.75,1.59,8,8,0,0,0-1.52,3.49,2,2,0,0,1-1,1.42A2.24,2.24,0,0,1,317,53a2,2,0,0,1-1.39-.91,2.23,2.23,0,0,1-.34-1.66c1.15-5,3.86-7.89,8.2-8.64a15.92,15.92,0,0,1,5.52-.07c1.93.31,4,.65,6,1,2.37.44,4.71.82,7,1.09a11.46,11.46,0,0,0,5.92-.65,2.72,2.72,0,0,1,1.8-.23,1.5,1.5,0,0,1,1,1,3.24,3.24,0,0,1,.1,1.83,7.89,7.89,0,0,1-.95,2.4,48.15,48.15,0,0,0-2.64,5.12c-.81,1.83-1.69,3.66-2.61,5.55s-1.93,3.76-3,5.59a29.54,29.54,0,0,1-3.8,5c.68.74,1.43,1.62,2.24,2.64A31.76,31.76,0,0,0,342.62,75a20.14,20.14,0,0,0,2.64,2.37,4,4,0,0,0,5.79-.47,17.1,17.1,0,0,0,2.71-3.62,40.57,40.57,0,0,0,2.17-4.44c.61-1.52,1.11-2.85,1.45-3.86.65-2,1.22-4,1.76-6s.95-3.76,1.29-5.28.68-3.29,1.05-5.22A2.11,2.11,0,0,1,362.4,47a2.2,2.2,0,0,1,1.66-.37,2.1,2.1,0,0,1,1.49.91,2.3,2.3,0,0,1,.37,1.66c0,.1-.1.64-.31,1.63s-.47,2.3-.84,3.89-.82,3.42-1.36,5.45-1.12,4.07-1.83,6.14a50.26,50.26,0,0,1-5.28,12C353.73,82.7,350.81,84.8,347.63,84.8ZM326.05,67.22a4.64,4.64,0,0,0-2.27.44,3.88,3.88,0,0,0-1.08.88c-.1.31-.1.51,0,.61a1.71,1.71,0,0,0,.88.61,5.09,5.09,0,0,0,2.3.14,6.61,6.61,0,0,0,3.29-1,7.34,7.34,0,0,0-1.59-1.26A3.4,3.4,0,0,0,326.05,67.22Z"/></svg>