<?xml version="1.0" encoding="utf-8"?>
<!-- Generator: Adobe Illustrator 25.2.3, SVG Export Plug-In . SVG Version: 6.00 Build 0)  -->
<svg version="1.1" id="Layer_1" xmlns="http://www.w3.org/2000/svg" xmlns:xlink="http://www.w3.org/1999/xlink" x="0px" y="0px"
	 viewBox="0 0 64 72" style="enable-background:new 0 0 64 72;" xml:space="preserve">
<style type="text/css">
	.st0{fill:#F1DAD4;}
	.st1{fill-rule:evenodd;clip-rule:evenodd;fill:#604543;}
	.st2{fill-rule:evenodd;clip-rule:evenodd;fill:#886F6C;}
	.st3{fill-rule:evenodd;clip-rule:evenodd;fill:#667A68;}
	.st4{fill:#EED1CA;}
	.st5{fill:#EDA39E;}
</style>
<g>
	<path class="st0" d="M32.2,4c0,0,0.7,0.5,0.7,1.5"/>
</g>
<g>
	<path class="st1" d="M32,0.9c-11,0-19.9,8.9-19.9,19.9c0,2.3,0.6,5.5,1.5,7.6L32,71.1l18.5-42.8c0.8-1.9,1.4-5.1,1.4-7.4
		C51.9,9.8,43,0.9,32,0.9z"/>
	<path class="st2" d="M32,0.9L32,0.9l0,70.1l18.5-42.8c0.8-1.9,1.4-5.1,1.4-7.4C51.9,9.8,43,0.9,32,0.9z"/>
	<circle class="st3" cx="32" cy="20.8" r="16.3"/>
</g>
<g id="g_1_">
	<path id="s_5_" class="st4" d="M26.2,23.7c1,0,1.9,0.5,2.4,1.3h8.6c0.3-0.5,0.8-0.9,1.4-1.1V12.6H19.9v12.5h3.8
		C24.3,24.3,25.2,23.7,26.2,23.7z"/>
	<path id="s_4_" class="st5" d="M19.9,26.1c0,0.1,0,0.2,0.1,0.3c0.1,0.1,0.2,0.1,0.4,0.1h2.9c0-0.4,0.1-0.8,0.2-1.1h-3.6V26.1z"/>
	<path id="s_3_" class="st5" d="M29,26.6h7.8c0-0.4,0.1-0.8,0.2-1.1h-8.2C29,25.8,29,26.2,29,26.6z"/>
	<path id="s_2_" class="st4" d="M44.9,17.4c-0.8-0.8-1.8-1.5-2.8-1.6c-1-0.1-2.9-0.2-2.9-0.2v8.2c0.2,0,0.3,0,0.5,0
		c1.6,0,2.9,1.3,2.9,2.9h2.4c0.3,0,0.6-0.1,0.8-0.3c0.2-0.2,0.3-0.5,0.3-0.8v-5.2C46.1,19.2,45.7,18.2,44.9,17.4z M45.3,21.2
		c0,0.1-0.1,0.2-0.2,0.3c-0.1,0.1-0.2,0.1-0.3,0.1l-4.2-0.8c-0.1,0-0.2-0.1-0.2-0.1c-0.1-0.1-0.1-0.2-0.1-0.3v-3.6
		c0,0,1.4,0,2.1,0.1c0.7,0.1,1.5,0.6,2.1,1.2c0.6,0.6,0.9,1.3,0.9,2.1V21.2z"/>
	<path id="s_1_" class="st5" d="M28.2,25.2c0-0.1-0.1-0.1-0.1-0.2c-0.4-0.6-1.1-0.9-1.9-0.9c-0.8,0-1.5,0.4-1.9,0.9
		c0,0.1-0.1,0.1-0.1,0.2c-0.1,0.1-0.1,0.2-0.2,0.3c-0.2,0.3-0.3,0.7-0.3,1.1c0,1.4,1.1,2.4,2.4,2.4c1.4,0,2.4-1.1,2.4-2.4
		c0-0.4-0.1-0.8-0.3-1.1C28.3,25.4,28.3,25.3,28.2,25.2z M26.2,27.9c-0.7,0-1.3-0.6-1.3-1.3c0-0.5,0.3-0.9,0.6-1.1
		c0.2-0.1,0.4-0.2,0.6-0.2c0.2,0,0.4,0.1,0.6,0.2c0.4,0.2,0.6,0.6,0.6,1.1C27.4,27.3,26.9,27.9,26.2,27.9z"/>
	<path id="s" class="st5" d="M39.6,24.1c-0.2,0-0.3,0-0.5,0c-0.2,0-0.4,0.1-0.6,0.2c-0.4,0.2-0.7,0.5-1,0.8
		c-0.3,0.4-0.4,0.9-0.4,1.4c0,1.4,1.1,2.4,2.4,2.4c1.4,0,2.4-1.1,2.4-2.4S41,24.1,39.6,24.1z M39.6,27.9c-0.7,0-1.3-0.6-1.3-1.3
		c0-0.3,0.1-0.5,0.2-0.7c0.1-0.2,0.3-0.4,0.6-0.5c0.1-0.1,0.3-0.1,0.5-0.1c0.7,0,1.3,0.6,1.3,1.3C40.9,27.3,40.3,27.9,39.6,27.9z"/>
	<rect id="white_stripe" x="19.9" y="13.7" class="st5" width="18.7" height="0.3"/>
</g>
</svg>
