<?xml version="1.0" encoding="utf-8"?>
<!-- Generator: Adobe Illustrator 25.2.3, SVG Export Plug-In . SVG Version: 6.00 Build 0)  -->
<svg version="1.1" id="Layer_1" xmlns="http://www.w3.org/2000/svg" xmlns:xlink="http://www.w3.org/1999/xlink" x="0px" y="0px"
	 viewBox="0 0 175 59" style="enable-background:new 0 0 175 59;" xml:space="preserve">
<style type="text/css">
	.st0{fill:#FFFFFF;}
	.st1{fill:#3C4043;}
	.st2{fill:#4285F4;}
	.st3{fill:#34A853;}
	.st4{fill:#FABB05;}
	.st5{fill:#E94235;}
	.st6{enable-background:new    ;}
</style>
<g id="Group_715" transform="translate(-1091 -641)">
	<g id="Button_-_Wht_G_Pay" transform="translate(1121 668)">
		<g transform="matrix(1, 0, 0, 1, -30, -27)">
			<path id="Rectangle_2312-2" class="st0" d="M28,0h119c15.5,0,28,12.5,28,28v3c0,15.5-12.5,28-28,28H28C12.5,59,0,46.5,0,31v-3
				C0,12.5,12.5,0,28,0z"/>
		</g>
		<g id="google-pay-mark_800" transform="translate(74 3)">
			<g id="google-pay-mark_800-2">
				<g id="G_Pay_Lockup_1_2" transform="translate(14.312 15.128)">
					<g id="Pay_Typeface_3_2" transform="translate(28.112 1.441)">
						<path id="Letter_p_3_2" class="st1" d="M-27.6-15.2v8H-30V-27h6.4c1.5,0,3,0.6,4.1,1.7c2.3,2.3,2.3,6,0,8.4
							c-1.1,1.1-2.6,1.7-4.1,1.7L-27.6-15.2L-27.6-15.2z M-27.6-24.6v6.9h4c0.9,0,1.8-0.4,2.4-1c0.6-0.6,1-1.5,1-2.4
							c0-0.9-0.3-1.8-1-2.4c-0.6-0.7-1.5-1.1-2.4-1L-27.6-24.6L-27.6-24.6z"/>
						<path id="Letter_a_3_2" class="st1" d="M-11.5-21.2c1.5-0.1,3.1,0.5,4.2,1.5c1.1,1.1,1.6,2.6,1.5,4.1v8.3h-2.3v-1.9h-0.1
							c-0.8,1.4-2.3,2.3-4,2.3c-1.3,0-2.6-0.4-3.5-1.3c-0.9-0.8-1.5-2-1.4-3.3c-0.1-1.3,0.5-2.5,1.5-3.3c1.1-0.9,2.6-1.3,4-1.2
							c1.2,0,2.4,0.2,3.5,0.8v-0.6c0-0.9-0.3-1.7-1-2.2c-0.6-0.6-1.5-0.9-2.3-0.9c-1.3,0-2.5,0.7-3.2,1.8l-2.1-1.4
							C-15.6-20.3-13.6-21.3-11.5-21.2z M-14.6-11.4c0,0.6,0.3,1.3,0.8,1.7c0.5,0.4,1.2,0.7,1.9,0.7c1,0,2-0.4,2.7-1.2
							c0.8-0.7,1.2-1.7,1.2-2.8c-0.9-0.7-2-1-3.1-0.9c-0.9,0-1.7,0.2-2.4,0.7C-14.2-12.8-14.6-12.1-14.6-11.4L-14.6-11.4z"/>
						<path id="Letter_y_3_2" class="st1" d="M7.3-20.8l-8,19.5h-2.5l3-6.8l-5.3-12.7h2.6l3.8,9.7h0l3.7-9.7H7.3z"/>
					</g>
					<g id="G_Mark_1_2">
						<path id="Blue_500-2" class="st2" d="M-9-15.4c0-0.8-0.1-1.6-0.2-2.4h-10.1v4.4h5.8c-0.2,1.4-1,2.7-2.1,3.5v2.8h3.4
							C-10.1-9.3-8.9-12.3-9-15.4z"/>
						<path id="Green_500_1_2" class="st3" d="M-15.6-9.9c-1.1,0.7-2.3,1.1-3.6,1.1c-2.8-0.1-5.2-2-6-4.7h-3.6v2.9
							c1.7,3.8,5.4,6.2,9.6,6.2c2.6,0.1,5.2-0.9,7.1-2.7L-15.6-9.9z"/>
						<path id="Yellow_500_1_2" class="st4" d="M-25.6-15.7c0-0.7,0.1-1.5,0.3-2.2v-2.9h-3.6c-1.5,3.2-1.5,7,0,10.2l3.6-2.9
							C-25.5-14.2-25.6-14.9-25.6-15.7z"/>
						<path id="Red_500-2" class="st5" d="M-19.3-22.5c1.5,0,3,0.6,4.1,1.7l3.1-3.2c-1.9-1.9-4.5-3-7.2-3c-4.1,0.1-7.9,2.5-9.6,6.2
							l3.6,2.9C-24.5-20.5-22.1-22.4-19.3-22.5z"/>
					</g>
				</g>
			</g>
		</g>
		<g class="st6">
			<path class="st1" d="M-12.4,9V-1.2h3.9c0.8,0,1.4,0.1,1.9,0.4c0.5,0.2,0.9,0.6,1.1,1C-5.2,0.6-5.1,1-5.1,1.5
				c0,0.6-0.2,1.1-0.5,1.5C-5.9,3.4-6.4,3.7-7,3.9c0.4,0.1,0.8,0.2,1.1,0.4c0.3,0.2,0.6,0.5,0.7,0.8s0.3,0.7,0.3,1.1
				c0,0.3-0.1,0.7-0.2,1c-0.1,0.3-0.3,0.6-0.6,0.9c-0.3,0.3-0.6,0.5-1.1,0.7C-7.2,8.9-7.8,9-8.5,9H-12.4z M-10.9,0.1v3.1h2.4
				c0.6,0,1.1-0.1,1.4-0.4c0.3-0.3,0.5-0.7,0.5-1.2c0-0.5-0.2-0.8-0.5-1.1c-0.3-0.3-0.8-0.4-1.4-0.4H-10.9z M-10.9,7.7h2.4
				c0.7,0,1.2-0.1,1.5-0.4s0.5-0.7,0.5-1.1C-6.5,5.7-6.7,5.3-7,5c-0.3-0.3-0.8-0.4-1.5-0.4h-2.4V7.7z"/>
			<path class="st1" d="M-2.5,1.3H-1V6c0,0.6,0.1,1,0.4,1.3s0.7,0.4,1.2,0.4c0.4,0,0.8-0.1,1.2-0.3c0.3-0.2,0.6-0.6,0.8-1
				S2.9,5.6,2.9,5h0.5c0,0.9-0.1,1.7-0.4,2.3C2.7,7.9,2.4,8.4,2,8.7C1.5,9,1,9.1,0.4,9.1c-0.6,0-1.1-0.1-1.5-0.3s-0.8-0.5-1-1
				c-0.2-0.4-0.4-1-0.4-1.7V1.3z M2.9,1.3h1.5V9H2.9V1.3z"/>
			<path class="st1" d="M6.3,1.3H8l2.3,6.4H10l1.9-6.4h1.6l-2.9,9.2c-0.3,0.8-0.6,1.5-1,1.9C9.1,12.8,8.5,13,7.9,13
				c-0.4,0-0.7,0-1-0.1c-0.3-0.1-0.7-0.2-1-0.4v-1.4c0.3,0.2,0.6,0.3,0.8,0.4s0.5,0.1,0.8,0.1s0.5-0.1,0.7-0.3
				c0.2-0.2,0.4-0.4,0.5-0.7c0.1-0.3,0.3-0.6,0.4-0.9L9.4,9L6.3,1.3z"/>
			<path class="st1" d="M17.8,1.3h1.6l1.8,6.2h-0.2l1.8-5.8h1.3l1.8,5.8h-0.2l1.8-6.2h1.5L26.6,9h-1.5l-1.7-5.4h0.2L21.9,9h-1.5
				L17.8,1.3z"/>
			<path class="st1" d="M31.8-0.3c-0.3,0-0.5-0.1-0.7-0.3S30.8-1,30.8-1.3c0-0.3,0.1-0.5,0.3-0.7c0.2-0.2,0.4-0.2,0.7-0.2
				c0.3,0,0.5,0.1,0.7,0.2c0.2,0.2,0.3,0.4,0.3,0.7c0,0.3-0.1,0.5-0.3,0.7S32.1-0.3,31.8-0.3z M31.1,9V1.3h1.5V9H31.1z"/>
			<path class="st1" d="M34.9,2.3v-1h5v1H34.9z M38.4,9.2c-0.4,0-0.8-0.1-1.2-0.2s-0.6-0.4-0.8-0.7c-0.2-0.3-0.3-0.8-0.3-1.3v-7.7
				h1.5v7.7c0,0.7,0.3,1.1,1,1.1c0.2,0,0.4,0,0.6-0.1c0.2,0,0.4-0.1,0.7-0.2l0.2,1.1c-0.3,0.1-0.6,0.2-0.8,0.3
				C39,9.2,38.7,9.2,38.4,9.2z"/>
			<path class="st1" d="M42.1,9V-1.9h1.5V9H42.1z M47.5,9V4.5c0-0.7-0.2-1.2-0.5-1.5c-0.3-0.3-0.7-0.5-1.3-0.5
				c-0.4,0-0.8,0.1-1.1,0.3c-0.3,0.2-0.6,0.6-0.7,1s-0.3,1-0.3,1.6H43c0-0.9,0.1-1.7,0.4-2.4c0.2-0.6,0.6-1.1,1-1.5
				c0.5-0.3,1-0.5,1.6-0.5c0.6,0,1.1,0.1,1.6,0.4s0.8,0.7,1,1.2C48.9,3.2,49,3.8,49,4.5V9H47.5z"/>
		</g>
	</g>
</g>
</svg>
