<svg id="Layer_1" data-name="Layer 1" xmlns="http://www.w3.org/2000/svg" width="39.239" height="46.594" viewBox="0 0 39.24 46.59"><defs><style>.cls-1{fill:#f9f8f6;}</style></defs><path id="Icon_-_Shopping_Bag" data-name="Icon - Shopping Bag" class="cls-1" d="M38.43,17.2l-.15-.29a2.65,2.65,0,0,0-.33-.65L35.6,11.62a.59.59,0,0,0-.52-.31H31.8C31.34,9.7,28.43,1.06,19.62.75A11.93,11.93,0,0,0,10.4,5.54a17.66,17.66,0,0,0-3,5.77H4.16a.59.59,0,0,0-.52.31L1.29,16.26a2.65,2.65,0,0,0-.33.65l-.14.29a.56.56,0,0,0,0,.42c0,.14,0,.28,0,.42V42.61A3.23,3.23,0,0,0,4,45.84H35.25a3.23,3.23,0,0,0,3.23-3.23V18a3,3,0,0,0,0-.42A.55.55,0,0,0,38.43,17.2ZM11,10.54a10.09,10.09,0,0,1,17.34,0c.18.26.34.51.5.77H10.45c.15-.26.32-.51.5-.77ZM7.59,14.8H4a3.06,3.06,0,0,0-.74.09l1.26-2.4h4a17.58,17.58,0,0,0-.91,2.31Zm1.23,0a16.81,16.81,0,0,1,1-2.31H29.45a17.29,17.29,0,0,1,1,2.31Zm26.43,0h-3.6a17.58,17.58,0,0,0-.91-2.31h4L36,14.89a3.2,3.2,0,0,0-.75-.09Z"/></svg>