<svg xmlns="http://www.w3.org/2000/svg" width="39.239" height="46.594" viewBox="0 0 39.239 46.594">
  <path id="Icon_-_Shopping_Bag" data-name="Icon - Shopping Bag" d="M586.983,209.582l-.147-.287a3.082,3.082,0,0,0-.331-.652l-2.347-4.636a.588.588,0,0,0-.522-.314h-3.278c-.464-1.61-3.374-10.252-12.182-10.559a11.925,11.925,0,0,0-9.221,4.79,17.864,17.864,0,0,0-2.965,5.769h-3.278a.589.589,0,0,0-.522.314l-2.347,4.636a3.249,3.249,0,0,0-.331.652l-.143.287a.546.546,0,0,0-.031.426,3.305,3.305,0,0,0-.027.413v24.57a3.242,3.242,0,0,0,3.237,3.238H583.8a3.24,3.24,0,0,0,3.234-3.238v-24.57a3.317,3.317,0,0,0-.027-.413A.561.561,0,0,0,586.983,209.582Zm-27.476-6.656a10.09,10.09,0,0,1,17.337,0c.181.256.345.512.5.768h-18.34Q559.235,203.31,559.507,202.926Zm-3.36,4.258h-3.6a3.2,3.2,0,0,0-.747.089l1.266-2.4h3.988A17.188,17.188,0,0,0,556.146,207.184Zm1.232,0a16.825,16.825,0,0,1,.969-2.313H578a17.263,17.263,0,0,1,.969,2.313Zm26.426,0h-3.6a18.19,18.19,0,0,0-.907-2.313h3.985l1.269,2.4A3.2,3.2,0,0,0,583.8,207.184Z" transform="translate(-548.554 -192.385)" fill="none" stroke="#f9f8f6" stroke-width="1.5"/>
</svg>
