<svg xmlns="http://www.w3.org/2000/svg" viewBox="0 0 332.51 716.63"><defs><style>.cls-1{fill:none;}.cls-2{fill:#eed1ca;}.cls-3{fill:#604543;}.cls-4{fill:#755b58;}.cls-5{fill:#eda39e;}.cls-6{fill:#667a68;}</style></defs><g id="Layer_2" data-name="Layer 2"><g id="Layer_1-2" data-name="Layer 1"><path class="cls-1" d="M79.55,466.84h-.37c.24.45.47.91.69,1.37C79.75,467.75,79.64,467.3,79.55,466.84Z"/><path class="cls-2" d="M68.33,409l-.31-.31c-9.88-3.41-18.42-8.87-24.84-16.62C18.57,409.77,1.32,436.74,1.32,466.84h0c3.48-9.17,13.38-17,27.33-20.13V447c20.69-4.66,42.18,4.45,50.49,19.81h.37c-3.34-16.37,9.27-32.33,30.3-35.54v.31c22.34-3.77,44.36,10.39,49.08,29.58.47,1.88.95,3.77,1.42,5.66h.08l-1.5-6c-4.72-19.19,10.07-37.75,32.72-39.95h0c21.56-2.1,41.11,12.63,45.11,31.42-.28-19.16,15.53-35.86,37-36.46,22.65-.62,41.21,17,41.21,37.44v13.53h0V453.32c0-12.51,7-24,17.54-30.82V388.94q-14.52.07-30.44.83C161.76,396.69,93.81,417.46,68.33,409Z"/><path class="cls-3" d="M80.6,470.62c-.29-.8-.52-1.61-.73-2.41-.22-.46-.45-.92-.69-1.37-8.31-15.36-29.8-24.47-50.49-19.81v-.32c-13.95,3.15-23.85,11-27.33,20.13a20.56,20.56,0,0,0,1.22,17.31C43.79,558.71,90,632.32,108,716.63h51.59C146.66,631.06,111.74,550.84,80.6,470.62Z"/><path class="cls-3" d="M237,455.52c-.12-1.07-.17-2.13-.19-3.18-4-18.79-23.55-33.52-45.11-31.42h0c-22.65,2.2-37.44,20.76-32.72,39.95l1.5,6c20.66,82.32,42.74,164.69,51,249.47H263C258.63,629,247.32,542.25,237,455.52Z"/><path class="cls-4" d="M273.76,415.88c-21.47.6-37.28,17.3-37,36.46,0,1.05.07,2.11.19,3.18C247.32,542.25,258.63,629,263,716.32c0,.1,0,.21,0,.31H315V453.32C315,432.87,296.41,415.26,273.76,415.88Z"/><path class="cls-3" d="M315,453.32V716.63h17.54V422.5C321.93,429.36,315,440.81,315,453.32Z"/><path class="cls-4" d="M109.85,431.61v-.31c-21,3.21-33.64,19.17-30.3,35.54.09.46.2.91.32,1.37.21.8.44,1.61.73,2.41,31.14,80.22,66.06,160.44,79,246h51.91c-8.31-84.88-30.44-167.36-51.12-249.78-.47-1.89-.95-3.78-1.42-5.66C154.21,442,132.19,427.84,109.85,431.61Z"/><path class="cls-5" d="M210.52,88.09c-45.93,16.35-71.09,7.23-83.05,39.32s17.62,54.42,17.62,54.42-70.15-14.47-78.65,47.5a62.92,62.92,0,0,0,23.91,58.2s-51.91,3.78-58.51,49.39C28.18,361.78,33,379.78,43.18,392c6.42,7.75,15,13.21,24.84,16.62l.31.31c25.48,8.5,93.43-12.27,233.74-19.19q15.94-.78,30.44-.83V315.39c-3-.14-6-.29-9.05-.47-15.73-.95-31.77-1.89-47.82-3.78s-31.46-3.14-46.87-3.77-30.83-1.26-45.62-1.26-28.94.63-42.47,1.89a283.2,283.2,0,0,0-37.43,5.66A125.24,125.24,0,0,0,73.36,324a53.53,53.53,0,0,0-18.56,15.1,38,38,0,0,0-6.61,14.16,37.36,37.36,0,0,0-.62,4.09V359l-.32.3v-1.57a35.89,35.89,0,0,1,0-4.4,37.52,37.52,0,0,1,4.4-16.05,55,55,0,0,1,17.93-18.87,119.69,119.69,0,0,1,30.52-14.48,242,242,0,0,1,38.38-9.12,436.33,436.33,0,0,1,43.73-4.4c15.1-.95,30.83-.95,46.87-.63s32.09,1.57,48.14,3.15l47.18,3.77,8.11.45V236.44q-10.63.87-21.32,1.07H292.32l-18.25-.94a347.12,347.12,0,0,1-36.49-5c-12-2.2-23.6-5-34.6-8.18l-31.46-9.44c-9.75-3.15-18.88-6.29-27.37-8.5a106.54,106.54,0,0,0-23-4.09,40.81,40.81,0,0,0-17.3,2.52,39.46,39.46,0,0,0-10.07,6.3L90.66,213l-.31-.32.63-.94,1.57-2.83a35.25,35.25,0,0,1,8.81-9.13,42.1,42.1,0,0,1,19.19-7.23,100.1,100.1,0,0,1,26.11.31c9.12,1.26,19.19,3.15,29.26,5.35l31.77,7.55L241.35,213q17,3.3,34.92,5.66l8.81.94,8.81.63,17.3.94c7.2.2,14.29.27,21.32.15v-131a101.65,101.65,0,0,1-25.41,11.68,200.67,200.67,0,0,1-21.71,5.66l-11.32,2.2-11.33,1.89-22.65,3.15-22,2.2-20.45,1.88-18.24,1.89a90.06,90.06,0,0,0-26.11,6,16.91,16.91,0,0,0-6,4.4,8.73,8.73,0,0,0-.75,1.15,9,9,0,0,0-.19,1.37l-.32-.32a8.47,8.47,0,0,1,.51-1,8.19,8.19,0,0,1,.44-1.46,16,16,0,0,1,5-6.29c5.35-4.72,14.79-8.18,26.11-11.33,5.66-1.26,11.64-2.83,18.25-3.77l20.45-2.84,22-2.51,22.65-2.2,11.33-1.26,11-1.57a207.55,207.55,0,0,0,21.08-4.4c10.37-2.66,20-6.24,27.61-11V18.31C310.11,4.58,281.93,0,281.93,0,307.42,34.6,267.46,68,210.52,88.09Zm109.8,272.74H289.49A36.52,36.52,0,0,1,320.32,360.83ZM202.66,362.4l-19.19-24.22A36.48,36.48,0,0,1,202.66,362.4Zm-97.52,2.84-29.57,9.43A36.46,36.46,0,0,1,105.14,365.24ZM252.36,259.53a36.48,36.48,0,0,1-26.74,15.73Zm-103.5.32A36.49,36.49,0,0,1,119,252Zm116.4-95.64-21.39,22.34A36.51,36.51,0,0,1,265.26,164.21Zm45.93-89.65L298.92,46.24A36.48,36.48,0,0,1,311.19,74.56Z"/><path class="cls-6" d="M277.22,292.89c-16.05-1.58-32.09-2.84-48.14-3.15s-31.77-.32-46.87.63a436.33,436.33,0,0,0-43.73,4.4,242,242,0,0,0-38.38,9.12,119.69,119.69,0,0,0-30.52,14.48,55,55,0,0,0-17.93,18.87,37.52,37.52,0,0,0-4.4,16.05,35.89,35.89,0,0,0,0,4.4v1.57l.32-.3v-1.57a37.36,37.36,0,0,1,.62-4.09,38,38,0,0,1,6.61-14.16A53.53,53.53,0,0,1,73.36,324a125.24,125.24,0,0,1,29.89-10.38A283.2,283.2,0,0,1,140.68,308q20.3-1.89,42.47-1.89c14.79,0,30.2.63,45.62,1.26s30.83,1.88,46.87,3.77,32.09,2.83,47.82,3.78c3,.18,6,.33,9.05.47V297.11l-8.11-.45Z"/><path class="cls-6" d="M311.19,221.15l-17.3-.94-8.81-.63-8.81-.94q-17.92-2.37-34.92-5.66l-33.66-7.24-31.77-7.55c-10.07-2.2-20.14-4.09-29.26-5.35a100.1,100.1,0,0,0-26.11-.31,42.1,42.1,0,0,0-19.19,7.23,35.25,35.25,0,0,0-8.81,9.13L91,211.72l-.63.94.31.32,3.15-2.83a39.46,39.46,0,0,1,10.07-6.3,40.81,40.81,0,0,1,17.3-2.52,106.54,106.54,0,0,1,23,4.09c8.49,2.21,17.62,5.35,27.37,8.5L203,223.36c11,3.14,22.64,6,34.6,8.18a347.12,347.12,0,0,0,36.49,5l18.25.94h18.87q10.68-.19,21.32-1.07V221.3C325.48,221.42,318.39,221.35,311.19,221.15Z"/><path class="cls-6" d="M283.82,99.1l-11,1.57-11.33,1.26-22.65,2.2-22,2.51-20.45,2.84c-6.61.94-12.59,2.51-18.25,3.77-11.32,3.15-20.76,6.61-26.11,11.33a16,16,0,0,0-5,6.29,8.19,8.19,0,0,0-.44,1.46,8.73,8.73,0,0,1,.75-1.15,16.91,16.91,0,0,1,6-4.4,90.06,90.06,0,0,1,26.11-6l18.24-1.89L218.07,117l22-2.2,22.65-3.15,11.33-1.89,11.32-2.2a200.67,200.67,0,0,0,21.71-5.66,101.65,101.65,0,0,0,25.41-11.68V83.67c-7.61,4.79-17.24,8.37-27.61,11A207.55,207.55,0,0,1,283.82,99.1Z"/><path class="cls-6" d="M146.35,133.7a9,9,0,0,1,.19-1.37,8.47,8.47,0,0,0-.51,1Z"/><path class="cls-2" d="M298.92,46.24l12.27,28.32A36.48,36.48,0,0,0,298.92,46.24Z"/><path class="cls-2" d="M148.86,259.85,119,252A36.49,36.49,0,0,0,148.86,259.85Z"/><path class="cls-2" d="M75.57,374.67l29.57-9.43A36.46,36.46,0,0,0,75.57,374.67Z"/><path class="cls-2" d="M202.66,362.4a36.48,36.48,0,0,0-19.19-24.22Z"/><path class="cls-2" d="M289.49,360.83h30.83A36.52,36.52,0,0,0,289.49,360.83Z"/><path class="cls-2" d="M243.87,186.55l21.39-22.34A36.51,36.51,0,0,0,243.87,186.55Z"/><path class="cls-2" d="M252.36,259.53l-26.74,15.73A36.48,36.48,0,0,0,252.36,259.53Z"/></g></g></svg>