<svg xmlns="http://www.w3.org/2000/svg" viewBox="0 0 30 30.83"><defs><style>.cls-1{fill:#f9f8f6;}</style></defs><g id="Layer_2" data-name="Layer 2"><g id="Layer_1-2" data-name="Layer 1"><path class="cls-1" d="M21.19,30.83H8.81A8.82,8.82,0,0,1,0,22V8.81A8.82,8.82,0,0,1,8.81,0H21.19A8.82,8.82,0,0,1,30,8.81V22A8.82,8.82,0,0,1,21.19,30.83ZM8.81,2.26A6.56,6.56,0,0,0,2.26,8.81V22a6.56,6.56,0,0,0,6.55,6.55H21.19A6.56,6.56,0,0,0,27.74,22V8.81a6.56,6.56,0,0,0-6.55-6.55Z"/><path class="cls-1" d="M15,23.56a8.19,8.19,0,0,1-8.19-8.19A8.32,8.32,0,0,1,9.32,9.43,7.86,7.86,0,0,1,15,7.18a8.5,8.5,0,0,1,6.12,2.49,7.91,7.91,0,0,1,2,5.73,8.42,8.42,0,0,1-2.42,5.76A8.08,8.08,0,0,1,15,23.56ZM14.81,9.94a5.1,5.1,0,0,0-3.57,1.47,5.56,5.56,0,0,0-1.67,4,5.43,5.43,0,1,0,10.86,0h0a5.29,5.29,0,0,0-1.28-3.79A5.81,5.81,0,0,0,15,9.94Z"/><circle class="cls-1" cx="23.39" cy="6.95" r="1.91"/></g></g></svg>